#!OML:ASF H:\ManfredETheater\Project 1\Capture day 1\Session 1\subject.ASF
:FULLY-SPECIFIED
:DEGREES
317
root 3.02495 16.5953 -33.8951 -166.196 -9.56887 173.422
lowerback 16.4622 -1.6394 -3.59119
upperback 1.29488 -3.14909 -0.98663
thorax -7.7123 -1.51901 1.70427
lowerneck -20.1872 -2.74716 -3.54123
upperneck 6.74069 -3.34696 3.67482
head 5.3844 -1.51618 1.3857
rclavicle -2.69353e-014 -1.15295e-014
rhumerus -51.7893 -0.134577 -88.6174
rradius 73.6502
rwrist -12.0002
rhand -29.8972 13.8454
rfingers 7.12502
rthumb -3.21814 -16.1101
lclavicle -2.69353e-014 -1.15295e-014
lhumerus -37.2861 -9.67989 99.5611
lradius 98.4079
lwrist 10.5523
lhand -26.59 -9.80744
lfingers 7.12502
lthumb -0.0240908 20.1723
rfemur -40.8405 -15.9305 13.8422
rtibia 106.802
rfoot -5.37 -4.19299
rtoes 22.811
lfemur -32.5564 -0.196322 -32.1063
ltibia 57.4632
lfoot -29.8425 0.706282
ltoes -0.903247
318
root 3.02883 16.571 -34.5308 -165.949 -9.64602 172.863
lowerback 16.1129 -1.7574 -3.98686
upperback 1.1073 -3.37288 -1.1903
thorax -7.70095 -1.61153 1.74712
lowerneck -20.2229 -2.85395 -3.77162
upperneck 7.16659 -3.46622 4.02321
head 5.54161 -1.54449 1.5199
rclavicle -5.18828e-014 -1.20265e-014
rhumerus -54.2339 -1.34486 -87.5481
rradius 70.8245
rwrist -12.5061
rhand -30.4871 13.9513
rfingers 7.12502
rthumb -3.78781 -15.9948
lclavicle -5.18828e-014 -1.20265e-014
lhumerus -34.1408 -11.0904 99.7305
lradius 99.9508
lwrist 9.91748
lhand -26.3558 -9.58056
lfingers 7.12502
lthumb 0.202075 20.3991
rfemur -45.6255 -16.1949 13.3859
rtibia 107.179
rfoot -6.90684 -3.85984
rtoes 20.5675
lfemur -29.5752 -0.568366 -32.177
ltibia 56.4107
lfoot -31.0154 1.51098
ltoes -3.43317
319
root 3.03353 16.5631 -35.1814 -165.8 -9.73476 172.509
lowerback 15.7171 -1.89122 -4.24291
upperback 0.935024 -3.57878 -1.30923
thorax -7.6486 -1.69929 1.79352
lowerneck -20.3143 -2.93494 -3.97841
upperneck 7.68356 -3.54659 4.27675
head 5.73364 -1.55846 1.62395
rclavicle 3.86636e-014 1.07344e-014
rhumerus -56.835 -2.14126 -86.4774
rradius 68.6651
rwrist -12.5237
rhand -30.8572 14.0595
rfingers 7.12502
rthumb -4.14526 -15.8799
lclavicle 3.86636e-014 1.07344e-014
lhumerus -31.364 -12.2883 99.7845
lradius 102.039
lwrist 9.21423
lhand -26.165 -9.2545
lfingers 7.12502
lthumb 0.386399 20.7249
rfemur -49.9814 -16.1763 13.2251
rtibia 106.618
rfoot -8.11926 -3.53464
rtoes 18.0739
lfemur -26.342 -0.785967 -32.0224
ltibia 55.0146
lfoot -31.7641 2.07569
ltoes -6.26145
320
root 3.04015 16.5724 -35.8464 -165.708 -9.82501 172.253
lowerback 15.2785 -2.0542 -4.49127
upperback 0.77086 -3.80973 -1.35251
thorax -7.55548 -1.7989 1.91682
lowerneck -20.4766 -2.95014 -4.13419
upperneck 8.26634 -3.53464 4.38968
head 5.95087 -1.53587 1.6847
rclavicle -1.67228e-014 -3.67752e-015
rhumerus -59.5507 -2.46369 -85.4902
rradius 67.2332
rwrist -12.1027
rhand -31.054 14.1712
rfingers 7.12502
rthumb -4.33524 -15.7644
lclavicle -1.67228e-014 -3.67752e-015
lhumerus -28.9471 -13.254 99.7267
lradius 104.653
lwrist 8.74992
lhand -26.0765 -8.85125
lfingers 7.12502
lthumb 0.471811 21.128
rfemur -53.8591 -15.9598 13.1959
rtibia 105.177
rfoot -9.10985 -3.19311
rtoes 15.3625
lfemur -22.9076 -0.906787 -31.7392
ltibia 53.2756
lfoot -31.9849 2.3457
ltoes -9.40801
321
root 3.04931 16.5971 -36.5256 -165.651 -9.92016 172.034
lowerback 14.8021 -2.26113 -4.80306
upperback 0.60814 -4.09822 -1.32391
thorax -7.4237 -1.92384 2.15832
lowerneck -20.6896 -2.87561 -4.21879
upperneck 8.87044 -3.39946 4.34445
head 6.17373 -1.46437 1.6972
rclavicle -5.27525e-014 -4.77083e-015
rhumerus -62.345 -2.30244 -84.6499
rradius 66.5333
rwrist -11.4487
rhand -31.1727 14.3573
rfingers 7.12502
rthumb -4.44987 -15.576
lclavicle -5.27525e-014 -4.77083e-015
lhumerus -26.8668 -13.9956 99.5318
lradius 107.735
lwrist 8.795
lhand -26.0499 -8.38731
lfingers 7.12502
lthumb 0.497584 21.5919
rfemur -57.2126 -15.6303 13.2076
rtibia 102.929
rfoot -9.95135 -2.83756
rtoes 12.4825
lfemur -19.3312 -0.991511 -31.377
ltibia 51.2305
lfoot -31.603 2.25771
ltoes -12.87
322
root 3.06026 16.6342 -37.2175 -165.606 -10.0147 171.859
lowerback 14.2784 -2.51969 -5.14893
upperback 0.438763 -4.44795 -1.22708
thorax -7.25568 -2.07688 2.49558
lowerneck -20.932 -2.70263 -4.23086
upperneck 9.4645 -3.12884 4.14864
head 6.38893 -1.33911 1.66545
rclavicle -4.02042e-014 -9.83984e-015
rhumerus -65.1839 -1.71423 -83.9805
rradius 66.5304
rwrist -10.8087
rhand -31.2483 14.5434
rfingers 7.12502
rthumb -4.52288 -15.3884
lclavicle -4.02042e-014 -9.83984e-015
lhumerus -25.0815 -14.5607 99.1555
lradius 111.195
lwrist 9.49191
lhand -26.0803 -7.93279
lfingers 7.12502
lthumb 0.46821 22.0464
rfemur -60.0461 -15.2329 13.2555
rtibia 99.9545
rfoot -10.6618 -2.49124
rtoes 9.5051
lfemur -15.7046 -1.07678 -30.9336
ltibia 48.9523
lfoot -30.5482 1.75474
ltoes -16.4349
323
root 3.07303 16.6814 -37.9208 -165.581 -10.1102 171.736
lowerback 13.724 -2.82744 -5.51383
upperback 0.267773 -4.854 -1.06079
thorax -7.05345 -2.25678 2.91856
lowerneck -21.1912 -2.43116 -4.15869
upperneck 10.0265 -2.7248 3.80532
head 6.58871 -1.16186 1.58853
rclavicle 1.49337e-014 2.66371e-014
rhumerus -68.021 -0.79067 -83.4668
rradius 67.1274
rwrist -10.422
rhand -31.3125 14.725
rfingers 7.12502
rthumb -4.58486 -15.2053
lclavicle 1.49337e-014 2.66371e-014
lhumerus -23.5344 -14.9888 98.5574
lradius 114.923
lwrist 10.8032
lhand -26.1742 -7.53488
lfingers 7.12502
lthumb 0.377481 22.4445
rfemur -62.3447 -14.7959 13.3452
rtibia 96.324
rfoot -11.1958 -2.18328
rtoes 6.62394
lfemur -12.089 -1.18273 -30.4005
ltibia 46.5189
lfoot -28.7709 0.823548
ltoes -19.9653
324
root 3.08706 16.737 -38.6346 -165.585 -10.2072 171.675
lowerback 13.139 -3.17354 -5.85927
upperback 0.10255 -5.29729 -0.837071
thorax -6.81208 -2.45694 3.38671
lowerneck -21.4477 -2.0807 -4.01597
upperneck 10.5443 -2.21434 3.3479
head 6.76994 -0.944316 1.4764
rclavicle -4.26393e-014 -3.79679e-014
rhumerus -70.8211 0.333029 -83.0587
rradius 68.1934
rwrist -10.4111
rhand -31.3674 14.9062
rfingers 7.12502
rthumb -4.63793 -15.0231
lclavicle -4.26393e-014 -3.79679e-014
lhumerus -22.1822 -15.2981 97.7092
lradius 118.781
lwrist 12.472
lhand -26.2906 -7.2398
lfingers 7.12502
lthumb 0.265031 22.7398
rfemur -64.0995 -14.3512 13.4853
rtibia 92.1026
rfoot -11.4375 -1.91795
rtoes 3.97195
lfemur -8.53529 -1.32105 -29.7753
ltibia 43.9966
lfoot -26.1874 -0.527423
ltoes -23.2739
325
root 3.1018 16.7993 -39.3579 -165.629 -10.3019 171.678
lowerback 12.5163 -3.54449 -6.15774
upperback -0.045969 -5.75762 -0.572042
thorax -6.52047 -2.67037 3.86111
lowerneck -21.6925 -1.71451 -3.80138
upperneck 11.0247 -1.61663 2.79736
head 6.93719 -0.664506 1.33698
rclavicle 4.08502e-014 1.66979e-014
rhumerus -73.5432 1.5305 -82.6891
rradius 69.5672
rwrist -10.725
rhand -31.4147 15.0961
rfingers 7.12502
rthumb -4.68362 -14.8321
lclavicle 4.08502e-014 1.66979e-014
lhumerus -21.0014 -15.4806 96.6096
lradius 122.64
lwrist 14.1494
lhand -26.3888 -7.03316
lfingers 7.12502
lthumb 0.170214 22.9465
rfemur -65.3168 -13.9195 13.6745
rtibia 87.3543
rfoot -11.2392 -1.71406
rtoes 1.69208
lfemur -5.07401 -1.49592 -29.0699
ltibia 41.4237
lfoot -22.67 -2.25709
ltoes -26.1255
326
root 3.11615 16.8662 -40.0893 -165.741 -10.3779 171.741
lowerback 11.8913 -3.91954 -6.38135
upperback -0.17646 -6.20998 -0.289834
thorax -6.20541 -2.88577 4.29884
lowerneck -21.9018 -1.26802 -3.56351
upperneck 11.4751 -0.990682 2.19147
head 7.09279 -0.415839 1.17537
rclavicle -1.76421e-014 -1.47101e-014
rhumerus -76.1673 2.69365 -82.2882
rradius 71.0892
rwrist -11.1924
rhand -31.4513 15.3121
rfingers 7.12502
rthumb -4.71887 -14.6153
lclavicle -1.76421e-014 -1.47101e-014
lhumerus -20.0017 -15.509 95.2844
lradius 126.383
lwrist 15.5142
lhand -26.435 -6.90276
lfingers 7.12502
lthumb 0.125597 23.0769
rfemur -65.9864 -13.5046 13.8925
rtibia 82.1606
rfoot -10.5042 -1.5672
rtoes -0.0840942
lfemur -1.87583 -1.72715 -28.3178
ltibia 39.2078
lfoot -18.2804 -4.20872
ltoes -28.1919
327
root 3.12926 16.9368 -40.828 -165.954 -10.4263 171.858
lowerback 11.2725 -4.27729 -6.50848
upperback -0.275136 -6.62743 -0.0136909
thorax -5.86731 -3.09153 4.66037
lowerneck -22.0508 -0.823798 -3.30306
upperneck 11.9073 -0.36438 1.55175
head 7.23905 -0.170949 0.999777
rclavicle 5.65542e-014 -9.14409e-015
rhumerus -78.6634 3.73086 -81.7909
rradius 72.6358
rwrist -11.5784
rhand -31.4546 15.4986
rfingers 7.12502
rthumb -4.72214 -14.4288
lclavicle 5.65542e-014 -9.14409e-015
lhumerus -19.1894 -15.3818 93.7817
lradius 129.896
lwrist 16.2852
lhand -26.4482 -6.83979
lfingers 7.12502
lthumb 0.112865 23.1399
rfemur -66.0975 -13.113 14.125
rtibia 76.5314
rfoot -9.08713 -1.50421
rtoes -1.33626
lfemur 1.24058 -2.05172 -27.56
ltibia 36.9949
lfoot -12.7424 -6.16749
ltoes -29.1607
328
root 3.15544 16.8831 -41.5354 -165.969 -10.6496 171.923
lowerback 10.5877 -4.75128 -6.76104
upperback -0.397985 -7.20493 0.358359
thorax -5.46407 -3.37534 5.19384
lowerneck -22.216 -0.301208 -3.02646
upperneck 12.1104 0.386499 0.841653
head 7.31646 0.129914 0.81382
rclavicle 4.47266e-014 2.22639e-014
rhumerus -81.253 5.28234 -81.5145
rradius 74.5699
rwrist -13.0282
rhand -31.3409 15.5731
rfingers 7.12502
rthumb -4.61227 -14.3567
lclavicle 4.47266e-014 2.22639e-014
lhumerus -17.9519 -15.1453 92.0937
lradius 133.862
lwrist 17.2509
lhand -26.6633 -6.13659
lfingers 7.12502
lthumb -0.0948693 23.8431
rfemur -66.4067 -12.874 14.4111
rtibia 70.604
rfoot -8.82381 -1.5611
rtoes -2.13867
lfemur 4.40535 -2.0999 -26.6115
ltibia 34.9306
lfoot -8.03857 -7.88837
ltoes -32.0142
329
root 3.16377 16.9617 -42.2948 -166.419 -10.5149 172.213
lowerback 9.8731 -5.00142 -6.63808
upperback -0.388408 -7.4461 0.598245
thorax -5.00331 -3.51579 5.32116
lowerneck -22.3424 0.0967333 -2.74183
upperneck 12.6253 0.961327 0.168486
head 7.50242 0.344481 0.618744
rclavicle 5.22804e-014 1.59028e-015
rhumerus -83.4682 5.89544 -80.6896
rradius 75.8358
rwrist -12.2591
rhand -31.4798 15.9681
rfingers 7.12502
rthumb -4.74647 -13.9587
lclavicle 5.22804e-014 1.59028e-015
lhumerus -17.5405 -14.5952 90.2899
lradius 136.719
lwrist 16.2646
lhand -26.4814 -6.4309
lfingers 7.12502
lthumb 0.0807894 23.5488
rfemur -65.481 -12.3606 14.7295
rtibia 64.2083
rfoot -5.47413 -1.82068
rtoes -2.16782
lfemur 7.41403 -2.44433 -25.832
ltibia 32.5463
lfoot 1.31703 -9.33229
ltoes -30.7497
